<svg xmlns="http://www.w3.org/2000/svg" viewBox="0 0 1530 331">
  <path fill="red" d="M386 244V124h-1c-4 4-19 4-26 4h-12v1c14 8 12 21 12 36v50c0 26-25 43-45 43-26 0-37-18-37-49v-85h-1c-5 4-20 4-27 4h-12v1c14 8 12 21 12 36v50c0 46 20 68 56 68 21 0 43-7 54-25v21h39v-1c-13-7-12-19-12-34m61-64c4-21 19-34 39-34 22 0 36 11 39 34h-78zm110 19c1-42-27-74-68-74-45 0-76 33-76 78 0 46 36 81 87 81 14 0 29-2 42-8l15-31h-1a76 76 0 0 1-49 17c-35 0-61-23-61-63h111zm24-144c8 0 22-1 27-5h1v207c8 2 16 4 25 4 33 0 52-23 52-56 0-32-15-56-45-56-10 0-17 3-26 7l17-28 21-3c34 0 64 30 64 74 0 52-35 85-90 85-20 0-40-4-55-6v-1c10-5 9-16 9-26V100c0-15 2-36-11-44v-1h11zm190 125c3-21 18-34 39-34 22 0 36 11 39 34h-78zm110 19c1-42-27-74-68-74-46 0-76 33-76 78 0 46 35 81 87 81 14 0 29-2 42-8l15-31h-1a76 76 0 0 1-50 17c-34 0-60-23-61-63h112zm136-37h-1c-9-11-24-16-37-16-30 0-51 22-51 54 0 37 29 62 63 62 16 0 33-6 44-16h1l-15 31c-13 6-27 7-41 7-46 0-83-33-83-76 0-56 41-83 87-83 11 0 22 1 33 4v33zM519 98V65c-20 9-38 25-50 42v12c29-20 50-21 50-21"/>
  <path fill="red" d="M113 261c-46 0-78-51-78-95v-5c0-43 28-83 76-83 51 0 77 48 77 93v5c0 48-30 85-75 85m157 50c-34 6-67-5-101-44 33-17 54-59 54-97v-5c-1-67-51-111-110-111C53 54 1 100 0 167v5c0 65 49 113 108 113l25-3c38 36 73 51 103 48 14-2 29-8 38-19h-4z"/>
  <path fill="#1a64b7" d="M1108 113h184V0h-184v113zm137-48c-2 7-6 9-7 9 0 0 1-7-4-11s-12-2-15 3c-3 4-3 10-3 10h10v7h-20s1 10 11 9c0 0-1 8-11 4 0 0 1 8-6 12-7-4-6-12-6-12-10 4-11-4-11-4 10 1 11-9 11-9h-19v-7h9s0-6-3-10c-3-5-10-7-15-3s-4 11-4 11c-1 0-5-2-7-9-4-13 9-26 23-19 9 6 13 17 13 30h5c0 1 1-10-1-17l-6-18c-3-5-4-15 2-23l9-12c1 3 4 6 10 12 5 8 4 18 2 23-4 7-5 13-7 18-2 7-1 18-1 17h5c0-13 4-24 14-30 13-7 26 6 22 19m101 48h184V0h-184v113zm136-48c-2 7-6 9-7 9 0 0 2-7-3-11-6-4-12-2-15 3-3 4-3 10-3 10h9v7h-19s0 10 11 9c0 0-1 8-11 4 0 0 0 8-6 12-7-4-7-12-7-12-9 4-11-4-11-4 11 1 11-9 11-9h-19v-7h10s-1-6-4-10c-3-5-9-7-14-3-6 4-4 11-4 11-1 0-5-2-7-9-4-13 9-26 22-19 10 6 13 17 13 30h5c0 1 2-10 0-17l-7-18c-3-5-4-15 2-23l10-12 9 12c6 8 5 18 2 23l-6 18c-2 7-1 18-1 17h5c0-13 4-24 13-30 13-7 27 6 22 19m-374 214h184V167h-184v112zm137-48c-2 7-6 10-7 10 0 0 1-8-4-12-5-3-12-1-15 3s-3 10-3 10h10v7h-20s1 10 11 9c0 0-1 8-11 4 0 0 1 8-6 12-7-4-6-12-6-12-10 4-11-4-11-4 10 1 11-9 11-9h-19v-7h9s0-6-3-10-10-6-15-3c-5 4-4 12-4 12-1 0-5-3-7-10-4-13 9-26 23-18 9 5 13 17 13 29h5c0 1 1-9-1-17l-6-17c-3-6-4-16 2-23l9-12 10 12c5 7 4 17 2 23-4 6-5 12-7 17-2 8-1 18-1 17h5c0-12 4-24 14-29 13-8 26 5 22 18m101 48h184V167h-184v112zm136-48c-2 7-6 10-7 10 0 0 2-8-3-12-6-3-12-1-15 3s-3 10-3 10h9v7h-19s0 10 11 9c0 0-1 8-11 4 0 0 0 8-6 12-7-4-7-12-7-12-9 4-11-4-11-4 11 1 11-9 11-9h-19v-7h10s-1-6-4-10-9-6-14-3c-6 4-4 12-4 12-1 0-5-3-7-10-4-13 9-26 22-18 10 5 13 17 13 29h5c0 1 2-9 0-17l-7-17c-3-6-4-16 2-23l10-12 9 12c6 7 5 17 2 23l-6 17c-2 8-1 18-1 17h5c0-12 4-24 13-29 13-8 27 5 22 18"/>
  <path fill="#fff" d="M1245 65c-2 7-6 9-7 9 0 0 1-7-4-11s-12-2-15 3c-3 4-3 10-3 10h10v7h-20s1 10 11 9c0 0-1 8-11 4 0 0 1 8-6 12-7-4-6-12-6-12-10 4-11-4-11-4 10 1 11-9 11-9h-19v-7h9s0-6-3-10c-3-5-10-7-15-3s-4 11-4 11c-1 0-5-2-7-9-4-13 9-26 23-19 9 6 13 17 13 30h5c0 1 1-10-1-17l-6-18c-3-5-4-15 2-23l9-12c1 3 4 6 10 12 5 8 4 18 2 23-4 7-5 13-7 18-2 7-1 18-1 17h5c0-13 4-24 14-30 13-7 26 6 22 19m237 0c-2 7-6 9-7 9 0 0 2-7-3-11-6-4-12-2-15 3-3 4-3 10-3 10h9v7h-19s0 10 11 9c0 0-1 8-11 4 0 0 0 8-6 12-7-4-7-12-7-12-9 4-11-4-11-4 11 1 11-9 11-9h-19v-7h10s-1-6-4-10c-3-5-9-7-14-3-6 4-4 11-4 11-1 0-5-2-7-9-4-13 9-26 22-19 10 6 13 17 13 30h5c0 1 2-10 0-17l-7-18c-3-5-4-15 2-23l10-12 9 12c6 8 5 18 2 23l-6 18c-2 7-1 18-1 17h5c0-13 4-24 13-30 13-7 27 6 22 19m-237 166c-2 7-6 10-7 10 0 0 1-8-4-12-5-3-12-1-15 3s-3 10-3 10h10v7h-20s1 10 11 9c0 0-1 8-11 4 0 0 1 8-6 12-7-4-6-12-6-12-10 4-11-4-11-4 10 1 11-9 11-9h-19v-7h9s0-6-3-10-10-6-15-3c-5 4-4 12-4 12-1 0-5-3-7-10-4-13 9-26 23-18 9 5 13 17 13 29h5c0 1 1-9-1-17l-6-17c-3-6-4-16 2-23l9-12 10 12c5 7 4 17 2 23-4 6-5 12-7 17-2 8-1 18-1 17h5c0-12 4-24 14-29 13-8 26 5 22 18m237 0c-2 7-6 10-7 10 0 0 2-8-3-12-6-3-12-1-15 3s-3 10-3 10h9v7h-19s0 10 11 9c0 0-1 8-11 4 0 0 0 8-6 12-7-4-7-12-7-12-9 4-11-4-11-4 11 1 11-9 11-9h-19v-7h10s-1-6-4-10-9-6-14-3c-6 4-4 12-4 12-1 0-5-3-7-10-4-13 9-26 22-18 10 5 13 17 13 29h5c0 1 2-9 0-17l-7-17c-3-6-4-16 2-23l10-12 9 12c6 7 5 17 2 23l-6 17c-2 8-1 18-1 17h5c0-12 4-24 13-29 13-8 27 5 22 18"/>
</svg>